<svg xmlns="http://www.w3.org/2000/svg" viewBox="0 0 300 300"><path fill="#fff" fill-rule="evenodd" d="M150 299.3C67.7 299.3.7 232.3.7 150 .74 67.7 67.7.7 150 .7S299.3 67.66 299.3 150c0 82.3-66.96 149.3-149.3 149.3"/><g fill="#231f20"><path d="M150 0C67.29 0 0 67.29 0 150s67.29 150 150 150 150-67.29 150-150S232.7 0 150 0m0 1.479c82.03 0 148.5 66.5 148.5 148.5 0 82.03-66.5 148.5-148.5 148.5-82.03 0-148.5-66.5-148.5-148.5-.021-82.03 66.47-148.5 148.5-148.5"/><path d="M246.2 150c0 53.1-43.05 96.15-96.15 96.15S53.9 203.1 53.9 150s43.05-96.15 96.15-96.15S246.2 96.9 246.2 150"/><path d="M150 5.745c-79.54 0-144.3 64.72-144.3 144.3 0 79.54 64.71 144.3 144.3 144.3 79.54 0 144.3-64.71 144.3-144.3 0-79.54-64.71-144.3-144.3-144.3m0 11.83c73.13 0 132.4 59.29 132.4 132.4 0 73.13-59.29 132.4-132.4 132.4-73.13 0-132.4-59.29-132.4-132.4 0-73.13 59.29-132.4 132.4-132.4"/><path d="M42.95 192.5c-.402-.985-.925-1.635-1.564-1.948-.64-.315-1.453-.27-2.439.132-.948.389-1.537.917-1.765 1.586-.228.667-.14 1.494.263 2.48l1.925 4.71 5.504-2.248zm-9.472 2.081c-.36-.877-.54-1.723-.544-2.543a5.908 5.908 0 0 1 .426-2.283 5.447 5.447 0 0 1 1.24-1.849 5.915 5.915 0 0 1 1.934-1.253c1.149-.472 2.244-.636 3.28-.494 1.039.14 2 .669 2.887 1.584l.054-.02c-.07-.591-.026-1.12.133-1.59.16-.47.4-.899.72-1.287.323-.387.71-.73 1.16-1.033.454-.302.92-.572 1.397-.81.303-.145.66-.312 1.072-.502.413-.19.828-.396 1.249-.623a9.026 9.026 0 0 0 1.155-.727c.353-.26.624-.548.816-.861l1.756 4.3c-.523.49-1.203.939-2.038 1.345-.835.405-1.624.824-2.364 1.254-.963.563-1.586 1.179-1.867 1.848-.28.668-.2 1.543.24 2.62l1.757 4.3 7.642-3.123 1.756 4.3-19.55 7.99zM26.59 168.7l13.9-6.509-.007-.06-14.95-3.046-.72-6.5 21-2.324.479 4.322-14.88 1.648.005.059 15.45 3.499.394 3.558-14.16 6.778.006.058 14.73-1.632.48 4.322-21 2.327zM26.24 134.4l21.01 2.225-.488 4.62-21.01-2.226zM31.61 124.4l-3.749-1.093 4.852-16.62 3.749 1.096-1.775 6.077 16.53 4.827-1.302 4.457-16.53-4.825zM47.85 78.41l17.51 11.81-2.596 3.851-17.51-11.81zM57.29 72.08l-2.8-2.72 12.05-12.42 2.802 2.719-4.41 4.544 12.36 11.99-3.237 3.333-12.36-11.99zM88.22 41.35l2.149 3.26-8.522 5.618 2.688 4.075 7.385-4.868 1.987 3.013-7.385 4.868 4.803 7.287-3.877 2.556-11.62-17.64zM113.6 34.44l-.9-3.8 16.84-3.993.9 3.802-6.161 1.459 3.972 16.75-4.521 1.072-3.97-16.75zM149.7 38.21l-2.87-7.676-.06.002-2.542 7.821zm-.615-12.95l8.465 20.9-4.82.13-1.723-4.66-7.898.212-1.528 4.747-4.673.126 7.417-21.33zM183.9 29.66l-.805 3.821-10.91-2.294-.932 4.429 10.02 2.108-.742 3.531-10.02-2.107-1.065 5.065 11.15 2.345-.803 3.822-15.69-3.3 4.349-20.67zM200.6 35.92l-3.811 7.885 11.24-4.293 5.223 2.524-11.06 3.92 2.59 15.45-5.247-2.536-1.595-11.32-3.57 1.266-2.96 6.126-4.183-2.021 9.192-19.02zM221.8 75.24l6.933-13.1-.043-.038-12.22 8.355-3.5-3.141 9.938-19.46 3.46 3.102-7.112 12.94.046.038 12.33-8.256 3.238 2.904-7.03 13.25.043.041 12.29-8.528 3.394 3.043-18.33 11.93zM242.1 86.99a6.96 6.96 0 0 0-1.407 2.031 5.067 5.067 0 0 0-.442 2.358c.037.831.331 1.694.88 2.584.547.89 1.185 1.54 1.913 1.948a5.043 5.043 0 0 0 2.303.666 6.983 6.983 0 0 0 2.448-.342 10.86 10.86 0 0 0 2.365-1.093c.788-.485 1.5-1.044 2.13-1.676a7.13 7.13 0 0 0 1.457-2.064 5.04 5.04 0 0 0 .455-2.364c-.04-.833-.332-1.695-.881-2.584-.547-.89-1.185-1.54-1.913-1.95a5.021 5.021 0 0 0-2.315-.658 7.116 7.116 0 0 0-2.5.374c-.845.278-1.665.661-2.453 1.146a10.761 10.761 0 0 0-2.041 1.623m3.719-7.277c1.398-.305 2.759-.343 4.08-.115 1.322.227 2.565.742 3.729 1.543 1.164.798 2.173 1.888 3.019 3.265.858 1.393 1.382 2.787 1.567 4.178.185 1.393.083 2.729-.308 4.013-.392 1.283-1.04 2.48-1.94 3.592-.902 1.112-2.026 2.08-3.369 2.91-1.309.804-2.655 1.358-4.037 1.652-1.382.294-2.728.324-4.03.084-1.306-.238-2.534-.756-3.686-1.552-1.15-.797-2.157-1.893-3.015-3.287-.846-1.377-1.37-2.763-1.568-4.158-.2-1.395-.112-2.728.262-4.001.373-1.272 1.003-2.46 1.889-3.561.884-1.102 1.984-2.056 3.29-2.862 1.346-.827 2.717-1.393 4.116-1.7M268.3 110.3l-11.07 12.49.016.056 13.58-4.04 1.241 4.17-20.25 6.023-1.324-4.453 11.05-12.45-.016-.056-13.56 4.031-1.24-4.169 20.25-6.022zM263.5 145.5l-3.598.28-.692-8.877 3.596-.282zM256.6 164a5.926 5.926 0 0 0 .068 1.979c.132.652.416 1.257.85 1.812.434.555 1.032 1.031 1.797 1.429.764.4 1.722.675 2.876.827 1.055.139 2.022.161 2.9.068.878-.093 1.65-.336 2.319-.723.667-.391 1.213-.952 1.638-1.68.424-.73.711-1.663.86-2.796l.433-3.287-13.2-1.735zm17.03 2.568c-.177 1.349-.558 2.578-1.142 3.685a8.259 8.259 0 0 1-2.333 2.768c-.972.737-2.136 1.259-3.488 1.57-1.355.31-2.901.35-4.642.12-1.525-.201-2.908-.582-4.148-1.142s-2.275-1.3-3.109-2.214c-.834-.914-1.444-2-1.825-3.254-.382-1.253-.468-2.682-.256-4.286l1.186-9.034 20.94 2.754zM255.1 187.7a7.018 7.018 0 0 0-2.472.047 5.08 5.08 0 0 0-2.17 1.022c-.652.518-1.18 1.26-1.581 2.226-.4.965-.555 1.861-.462 2.691.095.829.364 1.581.808 2.257a7.03 7.03 0 0 0 1.712 1.783c.694.514 1.453.941 2.272 1.281.857.355 1.723.605 2.604.746a7.16 7.16 0 0 0 2.527-.024 5.043 5.043 0 0 0 2.183-1.016c.653-.519 1.18-1.26 1.58-2.226.403-.966.555-1.862.463-2.692a5.022 5.022 0 0 0-.822-2.262 7.165 7.165 0 0 0-1.763-1.808 11.542 11.542 0 0 0-2.37-1.318 10.65 10.65 0 0 0-2.507-.707m8.075-1.243c1.067.956 1.894 2.036 2.482 3.243.589 1.204.898 2.513.933 3.926.031 1.411-.263 2.864-.883 4.36-.629 1.511-1.453 2.75-2.472 3.713a9.363 9.363 0 0 1-3.433 2.098c-1.271.434-2.62.61-4.049.528-1.428-.08-2.873-.423-4.328-1.028-1.422-.59-2.655-1.359-3.704-2.308-1.047-.947-1.858-2.02-2.428-3.217-.571-1.198-.87-2.497-.896-3.896-.029-1.399.272-2.857.899-4.367.621-1.494 1.439-2.73 2.453-3.707 1.016-.978 2.148-1.688 3.399-2.129 1.25-.442 2.58-.625 3.994-.553 1.41.074 2.825.407 4.247.996 1.457.605 2.719 1.386 3.786 2.342M102.3 249.8a10.817 10.817 0 0 1-1.241-1.408c-.318-.44-.445-.743-.383-.911.092-.255.57-.222 1.436.096a9.824 9.824 0 0 0 4.016.596c1.37-.081 2.14-.093 2.309-.03.38.14.745.477 1.1 1.012.353.539.465.985.332 1.345-.154.422-.574.567-1.254.437a40.192 40.192 0 0 1-1.88-.406 11.036 11.036 0 0 0-2.172-.15c-.17.008-.41.04-.717.095-.306.055-.545.05-.713-.011-.19-.07-.467-.29-.833-.665m14.37 8.976l2.93-7.97c.21-.569-.014-1.527-.67-2.868s-.934-2.148-.832-2.422c.108-.296.415-.351.921-.165.738.271 1.617 1.007 2.636 2.206 1.02 1.201 1.404 2.14 1.157 2.814-.04.107-.16.336-.362.694a6.371 6.371 0 0 0-.456.945l-3.695 10.06c-.34.857-.717 1.818-1.133 2.886a36.8 36.8 0 0 1-1.368 3.087c-.495.992-1.172 2.13-2.028 3.422-1.192 1.81-1.947 2.658-2.263 2.541-.084-.03-.094-.165-.03-.405.064-.24.17-.56.317-.961l.348-.949c.38-1.033.711-2 .995-2.902.283-.899.63-1.97 1.036-3.209l1.685-4.587-3.099-1.139a60.837 60.837 0 0 1-1.025 2.496c-.806 1.738-1.577 2.956-2.312 3.655-.736.7-1.167 1.025-1.293.98-.063-.022-.075-.123-.034-.3.04-.175.116-.41.224-.706a19.077 19.077 0 0 0 .957-3.778c-.442-.163-1.716-.361-3.82-.595-2.104-.237-3.61-.327-4.512-.276-.653.143-1.167.146-1.547.006-.485-.178-.766-.521-.843-1.027a3.097 3.097 0 0 1 .176-1.552c.108-.295.526-.85 1.254-1.657.36-.395.602-.76.726-1.1.256-.695.11-1.37-.44-2.027-.548-.656-.795-1.058-.74-1.206.124-.338.575-.363 1.356-.076.739.27 1.6.403 2.584.394.984-.01 1.975-.036 2.97-.076.338.125.682.425 1.034.9.351.477.466.884.342 1.222-.148.399-.558.572-1.23.516l-3.838-.404-.86 2.34c-.155.422-.23.694-.227.815.009.17.129.298.36.383.675.247 1.945.51 3.804.789l4.099.57 3.383-9.203c.17-.465.007-1.23-.485-2.297-.495-1.067-.691-1.737-.59-2.012.1-.274.372-.33.816-.167.675.248 1.439.835 2.297 1.76.856.926 1.172 1.694.948 2.305l-.513 1.104-2.21 6.01zM154.1 251.6c-.433-.419-.65-.753-.657-1-.004-.315.364-.478 1.105-.491.741-.012 1.746.305 3.015.947 1.268.642 1.91 1.312 1.922 2.007.003.18-.028.45-.09.81-.06.361-.089.642-.086.843l.129 8.055a31.58 31.58 0 0 1-.292 4.84c-.221 1.611-.58 2.926-1.08 3.944-.305.635-.526.954-.66.956-.113.001-.184-.17-.21-.52a12.93 12.93 0 0 1-.045-.69l-.003-.201a31.05 31.05 0 0 0-.145-2.543 37.01 37.01 0 0 0-.306-2.337c-.488.009-1.018.217-1.589.633-.571.413-.957.621-1.157.624-.244.004-.814-.266-1.712-.813-.898-.548-1.348-.934-1.351-1.16-.004-.202.342-.342 1.037-.42a8.574 8.574 0 0 0 2.589-.447 79.076 79.076 0 0 1 2.144-.844l-.146-9.03c-.122-.56-.47-1.173-1.04-1.839-.3-.353-.756-.797-1.371-1.325m-5.178 23.71c-.733-.863-1.294-1.567-1.685-2.11-.39-.546-.59-.953-.594-1.223-.006-.38.239-.575.733-.584.584-.01 1.33.26 2.238.806.906.548 1.365 1.102 1.374 1.663 0 .068-.034.26-.108.576-.074.315-.11.574-.107.776l.012.673c.006.36.121.6.349.72.226.12.52.177.879.172l.74-.013c.832-.013 1.699-.168 2.608-.464.904-.295 1.558-.447 1.963-.452.515-.009.893.09 1.133.302.24.209.36.482.367.818.011.741-.64 1.37-1.957 1.886-1.093.423-2.09.64-2.988.656-1.303.02-2.345-.4-3.123-1.263-.298-.333-.909-1.312-1.834-2.938m-4.151-4.482c-.533.412-.922.622-1.17.625-.158.003-.236-.074-.239-.23l.16-.577c.325-.702.636-1.617.932-2.744.296-1.13.44-2.031.429-2.704-.006-.316-.055-.55-.147-.706-.381.074-.66.124-.84.148-.583.123-.975.219-1.175.29-.068.022-.368.162-.904.418a1.636 1.636 0 0 1-.671.18c-.585.01-1.386-.326-2.41-1.007-.59-.393-.888-.714-.89-.963-.005-.269.295-.408.902-.418 1.19-.02 2.738-.201 4.642-.546.627-.1 1.467-.272 2.519-.513.86-1.093 1.472-2.058 1.84-2.895.304-.68.452-1.232.446-1.658-.007-.36-.18-.74-.525-1.14-.343-.397-.683-.594-1.02-.588-.27.004-.78.36-1.534 1.07-.753.708-1.365 1.067-1.836 1.074-.383.006-.969-.163-1.762-.51s-1.19-.666-1.195-.96c-.003-.202.753-.652 2.271-1.35.87-.397 1.36-.629 1.472-.698 1.445-.9 2.494-1.355 3.145-1.365.72-.012 1.51.538 2.37 1.648.861 1.109 1.297 2.044 1.31 2.809.008.517-.597 1.324-1.816 2.423-.53.479-1.374 1.167-2.528 2.062 1.342-.426 2.092-.663 2.25-.71 1.25-.38 1.977-.573 2.18-.576.29-.004.619.12.983.371.362.253.547.515.553.784.006.404-.83.835-2.509 1.287-1.814.413-2.843.642-3.089.691.185.312.346.624.487.937.139.312.213.625.217.94.01.583-.336 1.476-1.036 2.678-.7 1.204-1.305 2.012-1.815 2.423M182.5 270.7c-.496-.1-.781-.256-.862-.465-.119-.315.23-.628 1.049-.94l2.996-1.033c2.249-.857 5.01-1.967 8.287-3.334a38.146 38.146 0 0 0 2.265-.97l-.18-.473c-.297-.776-.8-1.463-1.505-2.06a91.3 91.3 0 0 1-2.365-1.949c-.127-.334.01-.58.407-.73.587-.224 1.385-.25 2.388-.08 1 .171 1.607.53 1.814 1.077.049.125.106.343.176.654.07.31.142.559.214.748l.78 2.047.22-.084c.65-.249 1.487-.716 2.51-1.407 1.024-.69 1.756-1.12 2.197-1.287.526-.2 1.183-.222 1.975-.067.793.154 1.281.474 1.464.956.13.337.104.665-.074.985-.179.32-.479.56-.899.722-.482.183-1.322.438-2.522.76-1.198.326-1.988.558-2.365.703-3.044 1.158-5.617 2.186-7.715 3.08-2.101.896-3.555 1.64-4.361 2.238a10.28 10.28 0 0 0-.805.774c-.28.3-.506.482-.676.546-.25.096-.769.108-1.555.034-.787-.074-1.737-.224-2.857-.446m-.574-19.51c-.843-.133-1.322-.349-1.433-.643-.08-.21.004-.41.256-.602.253-.191.61-.376 1.071-.552l1.01-.383c1.992-.76 3.734-1.615 5.224-2.567 1.046-.663 1.911-1.327 2.593-1.997.348-.348.583-.583.706-.701.225-.23.444-.385.654-.465.377-.145.929-.071 1.65.218.724.29 1.153.613 1.289.971.167.44-.14.894-.925 1.36-.47.276-1.737.962-3.796 2.058l-4.129 2.22 1.265 5.793c.081.21.2.316.355.316.157 0 .402-.063.738-.191l.568-.215c1.428-.544 2.6-1.176 3.515-1.898a77.653 77.653 0 0 0 2.65-2.18 2.52 2.52 0 0 1 1.876.007c.623.244 1.027.613 1.213 1.104.173.451.028.827-.435 1.127-.054.046-1.033.553-2.935 1.525-1.902.97-3.515 1.867-4.836 2.691l-.63.24c-.735.28-1.428.306-2.08.081-.65-.228-1.127-.735-1.426-1.524l-.204-.822c-.052-.51-.235-1.34-.553-2.494-.117-.366-.26-.876-.437-1.528-.232-.225-.57-.409-1.02-.55-.45-.141-1.05-.274-1.795-.4"/></g><path fill="#fff" d="M96.95 230.2c15.21 10.08 33.44 15.97 53.05 15.97s37.84-5.886 53.05-15.97l-53-118.9z"/><path fill="#ed1c24" d="M96.95 230.2c15.21 10.08 33.44 15.97 53.05 15.97s37.84-5.886 53.05-15.97L150 132.03z"/><g fill="#fff"><g fill-rule="evenodd"><path d="M146.6 194.4c.364-2.72 9.07-3.537 11.25-.454 2.087 1.453-.726 23.22-1.541 28.03-.636 1.269-9.16.815-8.888-1.36-.818-23.58-1.815-25.49-.818-26.21M162.4 194.4c4.99 1.18 9.343 3.086 9.343 5.263.364 9.16-5.439 21.86-7.254 23.67-1.907.996-7.075.179-7.257-1.633 3.901-24.76.725-27.48 5.169-27.3M134.4 197.7c.999-3.811 5.803-4.265 9.071-3.447 2.811.907 2.086 8.615 2.901 26.03-.362 1.814-7.528 1.635-9.07-.997-.272-9.161-.272-13.24-.815-16.69-.274-1.543-2.45-1.269-2.087-4.898"/><path d="M137.3 220.8c1.997 1.089 6.078 2.086 9.07.817 1.543-1.541.454 2.902-.997 3.173-.907.726-6.531.454-7.074-.453-.544-.907-1.362-2.902-.999-3.537M135.7 220.8c.543.453 1.268 2.719 1.815 3.358-.997 1.086-4.626.904-6.169-.547-.544-1.178-1.994-2.358-1.089-2.811 1.905.634 4.081.272 5.442 0"/><path d="M127 198.8c.453-1.723 5.078-1.814 6.984-2.178 3.809-4.263 6.713-4.534 12.15-3.265 3.266-3.717 10.61-3.086 12.7.364 6.894-2.09 11.79 4.352 11.88 2.629-2.904-11.43-11.16-6.078-12.97-7.981-.453-4.083-12.97-4.898-13.51.725-3.357.995-6.439-2.63-10.25 3.537-6.441-.363-6.803.908-8.979 3.084-3.629 1.725 1.996 7.71 2.72 18.59.092 2.719 1.814 2.358 2.086 4.714.274 2.268 5.988 1.54 6.078.09.182-3.717-.364-11.61-.364-15.69-.908-3.176-2.358-1.905-2.722-4.988-1.814-.907-3.808.544-5.803.362M172.2 209.5c1.633-.815 3.537 1.361 3.719 3.083 1.45 14.42-2.269 8.53-6.077 18.23-1.451 3.176-6.803 3.719-11.34.092-2.45-1.453-4.627-.546-7.166-.635-1.451-2.18-.908-6.08.451-6.624 7.348-1.632 5.806 1 11.61 1.182 2.996.726 6.624-5.624 8.8-15.33"/></g><path d="M234.5 122s1.281.604.83 3.62c-.184.546-.39 1.087-.611 1.618-.318.766-.735 1.346-1.19 2.009-.292.426-.25.935-.279 1.425-.03.52-.204.855-.427 1.312-.161.33-.41.648-.812.648 0 0 .979 1.132.15 1.81l-.224 1.812s1.583 3.92 1.206 4.524c0 0 .679 1.433-.226 2.413 0 0-1.281 2.112-2.79 2.565l-2.037 1.96s-2.562 2.036-4.6 1.13c0 0-2.79.15-2.94-.753 0 0-.604-1.735-.302-2.79 0 0-1.96 1.658-3.92 1.206 0 0-2.188 1.509-3.997 1.132l-1.207 1.658s1.81 4.827-1.583 5.957l-.756 4.75c.131.541.198 1.109.214 1.664.012.459-.003.945-.115 1.393-.108.429-.432.845-.473 1.287-.027.285.006.593.014.883.055 1.76.104 3.436-.103 5.192-.116.978-.244 1.999-.598 2.917-.46 1.198-.509 2.618-.634 3.888a31.808 31.808 0 0 0-.138 1.91c-.007.188.11 1.701.025 1.756l-.377.225.526 2.036s3.47 3.393 4.072 3.393c.539.139 1.09.167 1.614.371.243.095.435.164.523.434.043.118.057.28 0 .399-.022.047-.252.228-.252.228s0 .152-2.186.152c0 0-2.715.225-3.695-.754 0 0-.378-.302-2.94 0 0 0-1.81.075-1.283-1.583 0 0 .605-1.735.452-3.095-.087-.514-.048-1.506-.523-1.714-.326-.144-.795-.144-1.148-.238-.84-.227-1.664-.497-2.49-.765-.753-.241-1.5-.494-2.247-.75 0 0 .452-8.52 1.055-9.803l1.132-5.655s-.755-2.185.452-2.864l-2.112-12.89s-2.034-5.053-3.62-6.185l-2.262-2.185s-8.294-6.485-9.425-9.05c0 0-1.056-.83-1.735-.906 0 0-4.45-.451-5.806-2.79l-5.203-2.337.904-5.731s-1.734-1.81-2.715-1.81c0 0-.075.452-.679.452 0 0 .68.905-.377.905 0 0 .302.755.075.981-.636.64-1.54-.226-1.28-.98-.5-.357-.576-.464-.623-1.063a5.683 5.683 0 0 1-.006-.896c.011-.175.245-.945.176-1.058-.38-.614-1.28-1.7-1.027-2.467 0 0 0-.006.003-.009.13-.382.6-.732.957-.87.633-.244 1.185.1 1.725.406l1.207.679s1.132-.227 1.584.528l2.79 1.507s8.672 2.867 12.52 6.862l1.433 1.206s4.148 1.509 4.675 3.016c0 0 2.112.53 2.414 1.284 0 0 3.092 1.808 4.146 2.714.4.102.801.204 1.203.309.38.096.83.176 1.2.208a3.094 3.094 0 0 1-.444-.355c-.047-.048-.371-.54-.376-.54-.453-.008-1.441-.045-1.583-.603l-2.413-1.356s-1.056-.303.377-2.716l-1.734-1.658s-.603-1.283.225-1.811c0 0-.376-.754.605-.904 0 0-.077-.982.828-.907 0 0-.149-.828 1.358-.375 0 0 1.13.226 1.207.753l.753 1.133-.377 1.583s1.962.602 2.715 1.433c0 0 1.357 0 2.488.903l2.867 1.357s.904.302 1.358.153c0 0 3.467-.076 5.354.225 0 0 1.734-.377 3.016-.377 0 0 4.222-.678 5.43.53l1.884 1.13v-1.284s-.453-.526-.754-.602c0 0-.225-.377.452-.83l.981-1.13s.076-1.056.755-2.49c0 0-.755-1.056.3-1.81 0 0 3.47-1.81 6.938-.075 0 0 1.357 0 2.49 1.885"/></g><path fill="#231f20" d="M242 213.7a112.551 112.551 0 0 1-30.42 29.76h7.664a117.202 117.202 0 0 0 28.05-29.76zM57.97 213.7h-5.29a117.153 117.153 0 0 0 28.05 29.76h7.663c-11.95-8-22.28-18.1-30.42-29.8"/><path fill="#fff" d="M135.1 115.3c.382-.614 1.281-1.698 1.028-2.467l-.003-.009c-.13-.382-.6-.732-.959-.87-.633-.244-1.183.102-1.725.407l-1.207.679s-1.13-.228-1.583.527l-2.79 1.509s-8.673 2.865-12.52 6.86l-1.432 1.208s-4.148 1.507-4.676 3.016c0 0-2.11.528-2.413 1.283 0 0-3.092 1.809-4.146 2.714-.4.102-.803.205-1.203.309-.38.096-.83.176-1.2.21.156-.108.31-.222.445-.357.046-.048.371-.54.376-.54.452-.008 1.44-.044 1.583-.603l2.413-1.357s1.055-.302-.38-2.716l1.736-1.658s.602-1.281-.226-1.811c0 0 .377-.754-.604-.904 0 0 .077-.98-.83-.905 0 0 .15-.83-1.357-.376 0 0-1.132.225-1.207.752l-.753 1.133.377 1.583s-1.962.603-2.715 1.433c0 0-1.358 0-2.488.903l-2.867 1.357s-.904.304-1.358.153c0 0-3.467-.076-5.354.225 0 0-1.734-.378-3.016-.378 0 0-4.222-.677-5.429.53l-1.886 1.132v-1.284s.454-.527.756-.602c0 0 .225-.377-.453-.828l-.98-1.132s-.076-1.056-.755-2.49c0 0 .755-1.056-.302-1.81 0 0-.625-.31-1.58-.551v-.01c-.06-.012-.114-.018-.175-.032a9.746 9.746 0 0 0-.833-.146c-.087-.012-.17-.02-.253-.03-.167-.017-.327-.035-.503-.043-4.762-.337-6.36 2.743-6.64 3.256v.003c-.276.52-.504 1.423-.272 2.976-.645.132-1.728 1.117-2.086 2.214-.698 2.145-.006 3.391-.177 4.985-.172 1.596-1.247 3.278-2.641 3.706.528.191 3.244.647 5.064-2.293.788-1.272 1.186-3.936.413-4.975-.545-.732-.336-1.5.038-2.013.318.767.735 1.348 1.188 2.01.293.426.252.935.281 1.425.031.518.204.855.428 1.311.16.33.41.65.812.65 0 0-.981 1.13-.151 1.809l.225 1.81s-1.583 3.92-1.206 4.526c0 0-.68 1.432.226 2.413 0 0 1.281 2.11 2.79 2.564l2.036 1.96s2.564 2.036 4.6 1.132c0 0 2.79.15 2.941-.755 0 0 .604-1.735.302-2.79 0 0 1.96 1.658 3.92 1.207 0 0 2.188 1.507 3.997 1.13l1.207 1.658s-1.811 4.827 1.583 5.96l.756 4.75a7.89 7.89 0 0 0-.215 1.663c-.012.457.003.944.116 1.392.108.43.432.845.473 1.287.027.287-.006.595-.016.883-.053 1.76-.104 3.436.103 5.194.117.977.246 1.997.6 2.916.458 1.198.508 2.618.634 3.888.064.637.112 1.274.136 1.91.01.188-.11 1.703-.023 1.756l.375.225-.525 2.036s-3.47 3.393-4.073 3.393c-.538.14-1.09.168-1.614.372-.243.096-.435.164-.522.433a.567.567 0 0 0-.003.4c.023.048.254.227.254.227s0 .153 2.186.153c0 0 2.713.226 3.695-.753 0 0 .376-.302 2.94 0 0 0 1.81.074 1.282-1.584 0 0-.605-1.735-.451-3.093.087-.515.049-1.507.522-1.716.327-.142.796-.142 1.15-.239.838-.226 1.662-.497 2.487-.763.755-.241 1.5-.494 2.25-.75 0 0-.453-8.52-1.056-9.803l-1.133-5.655s.755-2.186-.451-2.865l2.111-12.89s2.036-5.053 3.62-6.183l2.262-2.186s8.294-6.485 9.426-9.049c0 0 1.056-.83 1.735-.905 0 0 4.45-.453 5.806-2.79l5.201-2.337-.904-5.731s1.735-1.811 2.716-1.811c0 0 .076.453.68.453 0 0-.68.903.375.903 0 0-.3.756-.075.981.637.64 1.543-.225 1.283-.98.498-.357.575-.462.62-1.063.027-.297.03-.597.008-.896-.013-.173-.247-.945-.178-1.058"/></svg>